<?xml version="1.0" standalone="no"?>
<!DOCTYPE svg PUBLIC "-//W3C//DTD SVG 20010904//EN"
 "http://www.w3.org/TR/2001/REC-SVG-20010904/DTD/svg10.dtd">
<svg version="1.0" xmlns="http://www.w3.org/2000/svg"
 width="2800.000000pt" height="2768.000000pt" viewBox="0 0 2800.000000 2768.000000"
 preserveAspectRatio="xMidYMid meet">

<g transform="translate(0.000000,2768.000000) scale(0.100000,-0.100000)"
fill="#ffffff" stroke="none">
<path d="M13135 27671 c-33 -14 -231 -39 -545 -71 -288 -29 -890 -110 -960
-130 -19 -5 -105 -20 -190 -34 -85 -13 -191 -33 -235 -44 -44 -12 -109 -26
-145 -32 -223 -38 -913 -217 -1245 -323 -474 -151 -665 -219 -1110 -396 -190
-75 -230 -92 -305 -126 -41 -18 -122 -54 -180 -80 -113 -49 -138 -61 -390
-183 -242 -117 -321 -157 -503 -256 -37 -20 -95 -51 -130 -70 -153 -82 -232
-127 -246 -140 -9 -7 -25 -16 -37 -20 -11 -3 -50 -25 -86 -49 -37 -23 -97 -60
-133 -82 -65 -39 -138 -84 -260 -161 -33 -20 -131 -85 -218 -143 -87 -58 -176
-117 -197 -131 -39 -25 -145 -99 -210 -146 -273 -198 -458 -342 -869 -675 -97
-79 -531 -467 -651 -582 -458 -441 -777 -787 -1210 -1311 -95 -115 -357 -457
-446 -582 -276 -386 -519 -756 -674 -1024 -24 -41 -60 -102 -80 -135 -48 -77
-166 -289 -268 -480 -109 -204 -412 -828 -412 -847 0 -4 -13 -35 -29 -70 -182
-400 -426 -1065 -580 -1583 -23 -77 -53 -176 -66 -220 -13 -44 -31 -109 -40
-145 -9 -36 -29 -112 -45 -170 -25 -94 -52 -205 -144 -610 -14 -63 -40 -189
-56 -280 -16 -91 -36 -201 -44 -245 -37 -204 -89 -585 -117 -864 -29 -292 -50
-435 -70 -473 -5 -10 -9 -392 -9 -913 0 -749 2 -900 14 -923 8 -15 17 -43 20
-62 8 -45 41 -358 56 -520 6 -69 24 -219 41 -335 16 -115 34 -246 40 -290 6
-44 21 -129 34 -190 13 -60 31 -161 40 -224 9 -63 29 -169 45 -235 15 -67 49
-213 75 -326 52 -225 105 -430 167 -645 116 -405 315 -990 443 -1300 32 -77
66 -162 76 -190 15 -44 96 -230 214 -495 51 -113 424 -854 457 -905 14 -22 49
-83 78 -135 210 -376 575 -945 838 -1306 80 -112 331 -437 422 -549 252 -310
325 -396 545 -635 437 -477 1103 -1103 1512 -1422 44 -35 159 -124 254 -199
662 -517 1464 -1033 2151 -1382 123 -63 232 -119 243 -125 81 -46 556 -260
795 -358 74 -30 182 -75 240 -99 58 -23 164 -64 235 -89 72 -26 141 -51 155
-57 69 -30 820 -272 880 -284 19 -4 82 -22 140 -40 58 -18 157 -45 220 -60 63
-15 129 -33 145 -40 17 -7 54 -16 83 -20 29 -3 97 -17 150 -31 458 -119 1382
-265 1887 -299 119 -8 250 -32 304 -56 42 -18 77 -19 1010 -19 842 0 969 2
988 15 38 27 141 44 383 65 69 6 152 15 185 20 33 5 105 14 160 20 446 51 895
129 1575 275 58 12 137 32 175 43 39 12 111 31 160 42 50 12 133 34 185 50 52
16 158 47 235 70 195 58 673 218 835 280 74 28 158 59 185 69 62 23 237 93
325 131 36 15 137 58 224 95 88 37 166 71 175 76 9 4 77 36 151 70 320 146
830 412 1165 609 50 29 110 64 135 78 25 13 52 30 60 37 8 7 38 25 65 39 28
15 65 37 83 49 18 12 67 44 110 71 144 91 197 126 242 156 25 17 59 40 75 50
64 42 370 258 454 322 20 15 59 43 86 63 28 19 75 55 105 79 30 25 73 57 95
72 22 16 56 42 76 59 20 16 62 50 94 75 59 47 155 126 310 258 49 43 101 86
115 98 260 218 643 587 976 939 235 250 266 283 390 426 218 253 359 424 484
589 30 40 83 107 117 150 76 96 181 242 293 404 47 68 110 159 140 202 111
161 384 594 462 734 14 25 50 88 80 140 30 52 72 127 93 165 21 39 59 109 86
156 58 103 419 833 447 904 11 28 62 149 115 270 184 426 332 838 500 1390 84
275 119 408 237 899 70 289 173 846 205 1111 9 72 18 139 21 150 7 34 43 362
54 503 15 186 46 332 71 332 5 0 9 371 9 931 0 807 -2 933 -15 943 -22 17 -43
113 -55 254 -59 675 -106 996 -249 1692 -37 180 -152 647 -213 865 -42 151
-181 587 -227 715 -22 58 -42 116 -46 130 -13 45 -95 274 -115 320 -20 47 -72
175 -120 295 -29 73 -93 223 -153 360 -31 73 -53 119 -149 325 -46 98 -190
384 -238 475 -23 44 -63 118 -88 165 -105 199 -226 408 -373 648 -52 84 -103
168 -113 185 -34 56 -262 399 -321 482 -31 44 -72 103 -91 130 -19 28 -55 77
-80 110 -24 33 -62 85 -84 115 -92 128 -314 411 -435 554 -55 65 -112 134
-127 154 -178 230 -977 1051 -1288 1323 -260 227 -548 467 -735 613 -165 128
-514 389 -600 448 -204 139 -453 304 -585 386 -80 50 -161 100 -180 112 -56
36 -432 252 -540 312 -285 157 -585 305 -1020 505 -48 22 -346 148 -500 212
-443 183 -1099 399 -1640 542 -414 108 -703 173 -1005 225 -77 13 -198 36
-270 49 -199 38 -674 102 -925 125 -272 25 -449 47 -504 63 -48 13 -1748 21
-1781 8z m1615 -911 c85 -5 229 -16 320 -24 91 -8 226 -20 300 -26 74 -6 154
-16 177 -21 55 -12 142 -24 317 -44 77 -9 200 -27 275 -41 75 -14 191 -34 258
-44 67 -11 166 -30 220 -44 54 -13 118 -27 143 -31 25 -3 117 -24 205 -45 88
-21 187 -45 220 -53 104 -25 358 -95 405 -112 25 -9 79 -24 120 -35 124 -32
749 -242 841 -283 30 -13 67 -27 83 -31 30 -7 171 -65 296 -121 41 -18 86 -36
100 -40 14 -4 63 -25 108 -46 46 -22 86 -39 88 -39 3 0 43 -18 90 -40 47 -22
88 -40 90 -40 12 0 313 -147 449 -219 27 -14 103 -55 170 -90 66 -35 138 -72
160 -83 22 -11 65 -35 95 -53 30 -18 88 -51 128 -74 173 -99 221 -126 280
-163 34 -21 92 -57 130 -79 37 -23 87 -55 112 -70 75 -47 483 -320 510 -341
14 -11 66 -49 115 -84 117 -84 191 -138 236 -172 20 -15 62 -47 95 -71 32 -25
79 -61 104 -81 25 -20 110 -89 190 -152 125 -100 228 -186 355 -296 127 -110
345 -310 415 -382 47 -47 105 -104 130 -126 25 -23 135 -137 245 -254 110
-118 232 -248 271 -289 101 -108 294 -330 383 -440 42 -52 111 -137 154 -190
43 -53 125 -158 182 -234 58 -76 120 -157 139 -180 18 -23 83 -114 143 -202
60 -88 135 -197 166 -242 121 -173 392 -613 513 -833 23 -41 65 -118 94 -170
29 -52 84 -156 122 -230 39 -74 74 -139 78 -145 3 -5 17 -35 30 -65 12 -30 30
-66 40 -80 17 -23 78 -155 171 -365 22 -49 51 -112 65 -140 28 -58 73 -166
115 -278 16 -44 37 -93 46 -110 9 -17 31 -72 49 -122 18 -49 54 -146 79 -215
26 -69 58 -159 71 -200 12 -41 36 -113 52 -160 91 -260 217 -693 262 -895 10
-44 34 -143 53 -220 121 -483 247 -1275 287 -1800 45 -597 50 -725 50 -1203 0
-260 -5 -539 -10 -620 -27 -396 -33 -471 -51 -650 -10 -106 -25 -236 -34 -290
-8 -53 -24 -171 -35 -262 -20 -158 -33 -236 -101 -595 -60 -318 -133 -632
-226 -975 -39 -148 -68 -244 -163 -555 -15 -49 -49 -148 -75 -220 -25 -71 -59
-166 -74 -210 -26 -75 -48 -131 -138 -360 -47 -118 -106 -260 -153 -365 -21
-47 -64 -143 -95 -215 -32 -71 -79 -173 -105 -225 -66 -134 -247 -484 -283
-550 -130 -236 -329 -578 -426 -728 -36 -57 -77 -121 -91 -143 -127 -200 -374
-549 -599 -844 -45 -60 -271 -341 -367 -458 -360 -437 -1147 -1229 -1544
-1553 -36 -29 -103 -85 -150 -123 -78 -65 -138 -113 -225 -181 -60 -47 -420
-316 -445 -333 -14 -9 -54 -38 -90 -64 -97 -70 -163 -116 -280 -193 -58 -38
-116 -78 -130 -88 -14 -10 -36 -25 -50 -32 -14 -7 -56 -33 -95 -58 -138 -90
-219 -140 -337 -209 -32 -18 -86 -49 -120 -69 -204 -119 -629 -344 -818 -432
-47 -22 -124 -59 -171 -81 -47 -23 -89 -41 -93 -41 -4 0 -40 -15 -79 -34 -121
-58 -270 -123 -312 -137 -22 -6 -49 -18 -60 -25 -27 -18 -272 -111 -520 -199
-50 -17 -122 -43 -160 -57 -39 -15 -126 -44 -195 -66 -69 -22 -170 -54 -225
-72 -117 -38 -264 -80 -425 -121 -63 -16 -153 -41 -200 -54 -47 -14 -139 -36
-205 -49 -66 -13 -133 -29 -148 -35 -15 -6 -81 -20 -145 -31 -64 -12 -151 -30
-194 -40 -42 -11 -141 -29 -220 -41 -78 -11 -181 -29 -228 -39 -47 -10 -173
-28 -280 -40 -107 -11 -233 -27 -280 -35 -81 -14 -269 -32 -590 -55 -550 -39
-1222 -39 -1780 0 -349 24 -441 32 -570 50 -74 11 -220 29 -325 40 -104 12
-228 30 -275 40 -47 10 -150 28 -228 39 -79 12 -178 30 -220 41 -43 10 -117
26 -167 35 -49 8 -152 30 -230 49 -77 19 -169 41 -205 49 -134 31 -338 86
-440 116 -58 18 -166 50 -240 73 -277 84 -770 254 -945 327 -27 11 -77 31
-110 45 -124 49 -172 70 -255 107 -47 22 -89 39 -94 39 -4 0 -40 15 -79 34
-40 19 -124 58 -187 87 -147 66 -577 281 -695 346 -86 48 -148 83 -307 175
-40 22 -100 56 -133 75 -101 58 -274 164 -393 241 -218 142 -303 198 -357 236
-33 23 -85 59 -115 81 -164 115 -365 262 -445 325 -32 25 -70 54 -84 65 -35
25 -115 91 -162 130 -19 16 -64 53 -98 80 -381 303 -971 872 -1392 1340 -238
266 -285 320 -521 611 -79 99 -349 461 -423 569 -33 48 -85 122 -116 164 -57
78 -145 212 -238 361 -29 47 -63 101 -76 120 -25 41 -87 141 -135 220 -77 129
-227 394 -283 500 -32 63 -67 129 -77 145 -10 17 -21 41 -25 55 -4 14 -20 43
-35 65 -24 35 -200 398 -200 411 0 3 -32 76 -71 162 -477 1047 -836 2299 -984
3432 -19 140 -38 287 -44 325 -13 86 -56 625 -71 875 -16 267 -13 1128 5 1380
53 755 106 1150 251 1885 42 216 81 383 155 670 48 190 179 629 231 775 17 47
43 123 58 170 57 169 164 460 185 500 8 15 28 63 44 107 41 108 104 258 135
320 14 29 26 56 26 60 0 14 173 378 201 421 16 25 29 51 29 56 0 6 42 94 94
196 140 278 179 353 202 385 11 17 23 37 26 45 6 16 127 221 234 395 194 316
536 824 645 956 21 25 64 82 95 125 61 86 205 269 270 344 22 26 74 89 116
141 139 175 361 412 718 769 345 344 536 528 625 600 24 19 93 78 153 130 169
146 282 242 321 272 20 15 55 42 78 60 156 124 265 207 468 352 50 35 101 73
115 83 86 67 536 365 660 438 36 21 81 48 100 60 38 24 43 27 277 159 171 97
201 113 428 231 83 42 155 81 160 85 6 4 114 56 240 114 127 59 253 117 280
131 95 45 190 88 260 115 39 16 131 54 205 85 74 31 153 62 176 70 22 7 74 26
115 43 283 112 769 270 1134 367 297 79 513 132 635 155 52 10 132 27 178 39
45 12 137 30 205 40 67 11 183 31 257 45 74 14 196 33 270 41 154 18 240 29
322 44 55 9 123 16 468 46 167 14 431 33 550 39 130 7 1129 -4 1280 -14z"/>
<path d="M13620 25549 c-36 -15 -60 -39 -60 -63 0 -12 26 -47 63 -84 l62 -63
3 -289 c3 -327 4 -322 -72 -385 -72 -58 -72 -89 -1 -131 39 -23 47 -24 88 -13
43 10 77 9 167 -6 60 -10 126 46 112 97 -2 10 -24 37 -49 60 -63 61 -73 84
-73 177 0 61 4 83 17 96 20 21 57 35 88 35 37 0 103 -85 175 -226 107 -209
134 -235 244 -238 53 -1 66 3 99 28 27 21 37 36 37 56 0 35 -11 44 -107 84
-53 22 -82 41 -90 57 -6 13 -30 62 -53 109 -23 47 -52 96 -65 110 -106 115
-102 197 17 326 43 47 60 52 105 30 81 -41 83 -41 111 -25 26 14 27 19 30 104
2 56 -2 98 -9 112 -18 33 -88 57 -141 49 -96 -16 -148 -63 -265 -241 -87 -132
-80 -125 -123 -125 -50 0 -70 27 -70 94 0 49 2 52 66 112 51 47 67 68 67 89 0
58 -51 75 -228 74 -66 0 -131 -5 -145 -10z"/>
<path d="M13100 25528 c-52 -4 -162 -12 -245 -18 -231 -18 -415 -46 -445 -68
-53 -40 -29 -112 52 -153 55 -28 65 -60 83 -251 8 -90 20 -209 25 -266 11
-119 6 -137 -60 -198 -44 -41 -52 -77 -24 -119 22 -34 67 -40 181 -22 54 9
213 25 353 37 314 26 312 26 343 50 33 26 41 75 27 170 -21 149 -37 180 -95
180 -44 0 -71 -34 -80 -103 -10 -69 -20 -94 -44 -107 -11 -6 -90 -18 -175 -26
-148 -16 -156 -15 -193 2 -21 11 -44 31 -51 46 -13 28 -19 178 -8 197 4 6 28
11 54 11 49 0 69 -10 130 -62 40 -34 75 -36 107 -3 21 20 25 34 25 87 0 35 -5
102 -10 148 -9 71 -15 89 -36 108 -25 21 -66 28 -99 16 -9 -4 -27 -28 -40 -54
-19 -38 -32 -51 -61 -60 -32 -11 -39 -10 -63 7 -29 22 -49 82 -50 150 -1 33 5
50 27 74 30 33 77 44 247 55 104 7 124 -4 145 -74 25 -89 101 -131 145 -82 15
17 18 36 16 127 -3 208 -9 215 -181 201z"/>
<path d="M14754 25533 c-33 -6 -66 -48 -75 -95 -5 -24 -11 -97 -15 -164 l-7
-120 28 -22 c34 -27 79 -28 104 -3 11 11 26 54 37 102 22 104 43 129 108 129
33 0 52 -6 72 -23 26 -23 27 -27 26 -119 -1 -53 -6 -134 -11 -180 -6 -45 -15
-136 -21 -200 -15 -172 -23 -182 -142 -192 -38 -3 -76 -10 -87 -15 -24 -13
-34 -52 -21 -85 18 -49 48 -58 253 -77 270 -25 302 -25 332 6 53 52 21 101
-89 135 -101 32 -102 35 -72 302 13 117 27 244 31 281 9 89 41 130 101 130 50
0 89 -25 103 -64 5 -16 7 -60 4 -98 -6 -68 -5 -71 25 -100 35 -36 59 -39 94
-11 32 25 46 78 58 230 10 128 6 150 -29 170 -36 19 -338 54 -646 75 -49 3
-101 8 -115 9 -14 2 -35 2 -46 -1z"/>
<path d="M15795 25395 c-37 -37 -33 -79 11 -118 43 -38 88 -116 104 -177 6
-25 28 -97 50 -160 87 -260 91 -283 66 -344 -27 -65 -105 -98 -137 -58 -8 9
-23 34 -34 56 -26 51 -53 63 -94 42 -41 -22 -58 -50 -69 -116 -11 -71 0 -112
41 -146 76 -65 165 -72 265 -22 67 33 76 42 277 278 58 69 125 148 149 175 23
28 60 72 80 100 72 94 101 121 166 154 115 58 145 105 98 148 -38 34 -82 52
-167 67 -90 15 -147 8 -168 -20 -16 -22 -16 -35 -2 -106 8 -38 8 -61 1 -74
-38 -68 -218 -274 -239 -274 -21 0 -113 283 -113 346 0 19 13 49 35 80 70 99
42 133 -148 174 -119 26 -142 25 -172 -5z"/>
<path d="M12032 25399 c-13 -5 -92 -20 -175 -34 -84 -15 -201 -37 -262 -50
-60 -13 -143 -29 -183 -36 -95 -14 -114 -30 -119 -100 -5 -62 33 -225 69 -299
18 -35 29 -46 51 -48 39 -5 74 21 85 62 10 36 0 115 -19 153 -7 12 -9 28 -6
37 8 21 59 45 112 53 59 8 89 -18 105 -91 6 -28 22 -96 35 -151 49 -211 77
-382 66 -402 -5 -11 -41 -35 -78 -53 -88 -43 -103 -56 -103 -95 0 -70 80 -94
195 -60 27 9 108 24 180 35 102 16 140 26 174 48 54 33 66 51 57 85 -9 39 -54
58 -129 55 -106 -5 -125 28 -167 280 -17 97 -37 198 -46 224 -9 27 -14 71 -12
104 3 53 6 60 33 75 17 9 53 20 80 24 49 6 50 5 67 -27 10 -18 24 -61 31 -95
18 -78 38 -109 76 -118 88 -19 107 38 76 221 -31 176 -54 214 -127 213 -24 0
-53 -4 -66 -10z"/>
<path d="M10962 25170 c-59 -21 -111 -51 -134 -77 -17 -19 -71 -186 -112 -348
-69 -265 -111 -375 -146 -375 -10 0 -67 166 -96 279 -33 131 -32 163 7 193 64
48 79 67 79 98 0 71 -69 88 -188 47 -37 -13 -85 -27 -107 -31 -61 -12 -95 -34
-112 -73 -13 -33 -13 -38 5 -62 10 -14 38 -39 61 -54 47 -33 72 -76 99 -173
18 -63 35 -121 108 -357 13 -43 24 -88 24 -101 0 -31 -57 -105 -86 -112 -51
-13 -121 3 -205 46 -46 23 -119 60 -161 81 -98 50 -148 96 -148 137 0 17 12
64 26 103 15 40 35 104 45 142 11 38 33 95 49 128 35 69 39 120 10 149 -11 11
-26 20 -34 20 -22 0 -148 -41 -187 -61 -39 -20 -89 -72 -89 -94 0 -7 16 -43
35 -79 40 -76 42 -94 14 -156 -25 -56 -56 -90 -82 -90 -31 0 -136 61 -158 91
-10 15 -23 48 -28 74 -9 49 -34 85 -60 85 -9 0 -59 -14 -111 -32 -111 -36
-160 -76 -160 -127 0 -40 28 -67 82 -81 66 -17 150 -49 185 -72 18 -11 64 -35
101 -53 38 -18 81 -48 96 -66 25 -29 28 -39 23 -79 -10 -80 -102 -355 -133
-396 -31 -40 -40 -112 -18 -134 24 -24 81 -23 136 3 29 14 67 29 83 33 75 18
135 70 135 117 0 18 -13 44 -35 70 -47 55 -51 76 -31 164 27 112 59 126 166
71 73 -38 90 -67 90 -151 0 -41 5 -58 20 -72 29 -26 100 -23 153 8 23 13 56
28 74 31 17 4 51 21 75 39 54 39 101 56 157 57 71 0 122 21 172 70 34 32 50
58 58 90 6 25 27 95 45 155 19 61 40 137 46 170 7 33 29 114 50 180 21 66 40
129 42 140 6 35 29 21 50 -30 52 -133 99 -286 105 -341 l6 -62 -47 -50 c-52
-55 -58 -85 -25 -126 26 -34 65 -34 161 -2 40 14 99 32 130 40 43 12 64 25 83
50 14 18 25 40 25 48 0 27 -38 65 -84 82 -53 20 -78 55 -100 142 -9 34 -27 85
-41 115 -13 30 -31 86 -39 126 -9 39 -24 95 -36 124 -11 30 -23 77 -26 105 -6
50 -6 51 30 72 57 34 70 99 29 145 -21 23 -83 22 -151 -3z"/>
<path d="M17033 25139 c-67 -19 -75 -76 -19 -128 43 -40 51 -81 30 -164 -9
-40 -27 -100 -40 -134 -13 -34 -35 -107 -49 -163 -32 -125 -71 -211 -105 -227
-14 -6 -43 -16 -66 -22 -60 -16 -83 -76 -46 -120 18 -21 142 -66 338 -120 154
-43 183 -41 203 12 21 55 -6 85 -120 132 -91 38 -109 58 -109 117 0 39 4 50
24 63 39 26 88 29 152 10 172 -51 193 -51 324 -9 90 30 93 31 158 117 59 77
64 91 65 185 2 89 -14 139 -65 201 -53 66 -140 114 -283 158 -343 106 -343
106 -392 92z m367 -254 c146 -39 227 -136 200 -237 -16 -55 -45 -85 -103 -104
-67 -22 -127 -21 -215 6 -85 26 -117 56 -116 109 2 63 45 190 76 223 32 34 43
34 158 3z"/>
<path d="M18082 24803 c-12 -2 -30 -15 -38 -28 -13 -20 -14 -33 -5 -75 16 -73
14 -116 -8 -158 -10 -20 -26 -62 -36 -92 -10 -30 -31 -81 -46 -112 -16 -32
-29 -63 -29 -70 0 -7 -18 -50 -40 -96 -22 -45 -40 -86 -40 -91 0 -24 -58 -69
-98 -76 -54 -9 -86 -46 -78 -90 10 -45 29 -58 174 -116 132 -52 133 -52 167
-36 59 28 58 64 -7 166 -21 33 -21 34 -4 107 23 98 45 124 100 124 27 0 61
-10 92 -26 27 -15 78 -38 114 -51 87 -33 100 -46 100 -101 0 -91 -74 -186
-154 -199 -44 -7 -76 -33 -76 -63 0 -29 54 -84 102 -104 24 -10 73 -31 109
-47 114 -50 179 -32 179 50 0 29 -7 46 -30 69 -33 35 -38 69 -19 135 11 42 58
145 88 194 11 17 25 51 32 75 7 24 33 88 59 144 43 91 51 102 91 123 138 71
114 142 -73 215 -115 44 -140 45 -179 7 -35 -36 -36 -51 -5 -88 48 -59 56 -93
35 -168 -13 -46 -77 -115 -107 -115 -27 0 -163 53 -227 88 -27 15 -56 39 -64
54 -14 24 -13 32 3 85 24 76 69 119 134 128 70 10 92 28 92 74 0 48 -12 58
-130 115 -97 46 -137 57 -178 49z"/>
<path d="M8646 24254 c-50 -19 -96 -40 -103 -46 -13 -10 -56 -33 -254 -133
-75 -38 -119 -84 -119 -124 0 -46 21 -63 91 -73 35 -4 75 -16 88 -26 24 -18
75 -103 127 -212 14 -30 33 -66 43 -80 10 -14 25 -43 33 -65 9 -22 32 -67 52
-99 20 -33 36 -70 36 -82 0 -11 -13 -48 -30 -80 -35 -70 -38 -99 -9 -115 31
-16 119 -6 165 18 173 90 321 175 331 189 21 29 17 101 -6 114 -36 19 -88 11
-155 -25 -100 -53 -162 -44 -186 29 -20 63 17 107 169 201 67 41 89 61 123
114 53 80 77 150 78 224 0 69 -15 107 -70 182 -34 46 -55 63 -113 91 -99 47
-168 47 -291 -2z m231 -164 c29 -17 57 -39 63 -49 14 -28 12 -106 -4 -144 -28
-65 -201 -197 -259 -197 -14 0 -39 11 -55 25 -33 28 -122 202 -122 240 0 45
208 154 295 155 17 0 53 -14 82 -30z"/>
<path d="M19180 24236 c-115 -25 -247 -127 -334 -258 -88 -132 -114 -318 -66
-463 13 -38 30 -81 39 -95 69 -109 161 -190 246 -216 135 -41 301 -22 418 47
118 70 199 169 261 319 23 57 32 222 17 305 -23 126 -106 246 -213 311 -100
61 -235 79 -368 50z m245 -174 c64 -31 114 -82 147 -150 30 -60 33 -75 32
-152 0 -47 -6 -103 -13 -125 -35 -108 -160 -245 -248 -271 -54 -16 -190 -19
-228 -4 -35 13 -134 99 -150 130 -37 71 -47 236 -21 324 26 84 125 192 226
246 57 30 196 32 255 2z"/>
<path d="M13809 23706 c-2 -2 -98 -6 -214 -9 -507 -15 -1016 -77 -1590 -192
-350 -70 -852 -206 -1150 -310 -88 -31 -187 -65 -221 -75 -33 -10 -78 -27
-100 -37 -21 -11 -64 -28 -94 -38 -30 -9 -84 -30 -120 -45 -36 -16 -94 -41
-130 -56 -199 -81 -234 -96 -254 -109 -12 -8 -39 -21 -61 -28 -68 -24 -472
-229 -655 -332 -47 -26 -109 -60 -139 -76 -30 -16 -61 -35 -70 -43 -9 -7 -36
-24 -60 -36 -24 -12 -62 -35 -84 -51 -22 -16 -44 -29 -49 -29 -9 0 -243 -154
-292 -192 -16 -13 -49 -34 -73 -48 -23 -14 -95 -63 -159 -110 -64 -47 -138
-101 -164 -120 -67 -48 -252 -191 -268 -207 -8 -7 -30 -26 -50 -41 -21 -15
-39 -29 -42 -32 -3 -3 -45 -39 -95 -80 -238 -198 -608 -543 -787 -735 -121
-131 -387 -429 -413 -465 -11 -15 -81 -104 -155 -196 -75 -93 -158 -200 -185
-237 -28 -37 -68 -92 -90 -122 -22 -29 -60 -83 -85 -119 -25 -37 -59 -85 -76
-109 -25 -34 -126 -192 -248 -387 -130 -206 -288 -493 -441 -800 -48 -96 -93
-187 -101 -202 -19 -35 -95 -208 -139 -313 -18 -44 -52 -125 -74 -180 -97
-231 -268 -716 -335 -950 -203 -704 -330 -1468 -376 -2265 -21 -350 -5 -1148
25 -1325 3 -16 17 -142 31 -280 55 -552 209 -1288 379 -1815 19 -58 38 -121
44 -140 9 -33 62 -183 144 -410 18 -52 43 -113 54 -135 11 -22 28 -64 38 -94
10 -30 26 -68 35 -85 10 -17 21 -42 25 -56 6 -22 42 -102 143 -324 170 -370
446 -858 724 -1276 124 -186 115 -173 348 -484 310 -414 609 -749 1020 -1146
94 -90 267 -250 296 -272 16 -12 81 -68 145 -123 209 -182 534 -432 779 -602
175 -121 448 -298 560 -362 41 -24 100 -58 130 -76 228 -132 711 -375 940
-473 52 -22 133 -57 180 -77 280 -121 766 -291 1115 -389 297 -84 895 -214
1130 -245 44 -6 123 -17 175 -25 96 -15 362 -43 675 -70 250 -22 655 -39 770
-32 55 3 127 6 160 6 69 -1 348 16 510 30 377 34 632 62 725 79 30 6 87 15
125 20 346 48 895 176 1300 303 834 261 1438 531 2155 963 209 126 430 265
476 300 17 13 69 50 115 81 46 31 144 102 218 158 73 56 145 110 160 121 190
142 365 285 521 425 52 47 110 98 130 115 69 59 470 467 581 592 63 70 141
157 175 193 33 36 71 79 85 96 13 17 85 107 159 200 74 93 144 183 154 199 11
17 45 62 75 100 67 84 242 334 323 460 78 123 229 369 263 430 15 28 35 61 45
75 21 31 228 416 263 490 14 30 35 71 46 90 58 100 262 571 358 825 196 524
401 1266 478 1735 9 52 27 158 40 235 33 189 47 310 102 890 24 260 24 921 0
1215 -10 118 -22 251 -27 295 -6 44 -17 158 -25 254 -9 96 -29 256 -45 355
-16 100 -37 228 -45 286 -26 176 -152 731 -195 860 -10 30 -26 84 -35 120 -23
89 -103 333 -170 520 -31 85 -69 191 -85 235 -34 95 -70 186 -111 276 -16 36
-29 69 -29 73 0 26 -336 721 -380 786 -9 14 -40 70 -70 124 -100 188 -290 498
-448 729 -231 340 -600 817 -781 1012 -31 34 -87 96 -126 140 -92 104 -394
407 -520 521 -244 221 -547 480 -670 574 -18 14 -59 45 -91 71 -186 143 -572
412 -763 529 -40 25 -98 62 -130 82 -31 21 -61 38 -67 38 -6 0 -23 9 -38 21
-79 62 -688 381 -941 492 -44 20 -126 56 -182 81 -56 25 -107 46 -112 46 -5 0
-44 16 -86 35 -43 19 -96 40 -118 46 -23 6 -59 20 -80 31 -82 41 -724 250
-887 288 -41 10 -115 29 -165 43 -114 32 -423 102 -540 122 -49 9 -139 25
-200 36 -95 17 -215 35 -370 54 -22 3 -125 16 -230 30 -205 26 -388 40 -755
55 -236 10 -483 13 -491 6z m5388 -1871 c13 -3 31 -17 40 -32 16 -25 18 -65
21 -428 2 -220 0 -415 -3 -433 -4 -23 -16 -39 -38 -52 -32 -20 -96 -20 -5249
-20 -3279 0 -5226 4 -5242 10 -50 19 -51 24 -51 475 0 385 2 423 18 448 9 14
31 30 47 34 33 9 10422 7 10457 -2z m-422 -1181 c39 -15 45 -53 45 -299 0
-250 -5 -281 -49 -305 -14 -7 -1524 -10 -4748 -10 -4708 0 -4728 0 -4761 20
-18 11 -37 32 -42 46 -13 33 -13 465 0 499 22 58 -342 54 4807 55 2602 0 4739
-3 4748 -6z m-323 -852 c22 -22 23 -28 26 -252 2 -149 -1 -236 -8 -249 -5 -11
-27 -25 -48 -31 -25 -7 -1418 -10 -4410 -10 -4705 0 -4424 -3 -4451 48 -7 13
-11 99 -11 229 0 190 2 211 20 241 11 18 30 37 43 42 13 5 1818 8 4419 7
l4397 -2 23 -23z m-1513 -722 c200 -1 374 -5 386 -10 48 -18 52 -55 65 -526 8
-310 9 -533 2 -757 -10 -336 -13 -351 -61 -377 -19 -10 -316 -10 -5089 -10
l-1504 0 -34 34 -34 34 0 763 c0 445 4 770 9 778 6 9 6 22 -1 34 -5 10 -7 22
-3 25 13 13 887 17 3385 15 1383 0 2679 -2 2879 -3z m-7172 -1904 c223 -59
438 -266 572 -549 108 -227 183 -554 201 -877 7 -110 10 -502 8 -965 -3 -715
-4 -783 -20 -811 -10 -18 -28 -34 -41 -38 -13 -3 -142 -6 -286 -6 -294 -1
-290 -2 -312 69 -7 24 -14 333 -19 926 -6 688 -11 902 -22 941 -20 79 -87 191
-125 209 -50 24 -90 28 -138 15 -60 -17 -118 -86 -154 -183 l-26 -72 0 -2395
c0 -2296 1 -2397 18 -2455 49 -160 163 -240 279 -196 59 22 130 152 148 271 7
48 13 326 17 780 4 487 9 717 17 744 10 33 17 41 41 46 17 3 155 6 307 5 252
0 279 -2 295 -18 17 -17 18 -61 18 -780 0 -823 2 -782 -56 -1082 -41 -214
-136 -459 -238 -615 -31 -48 -96 -125 -148 -177 -80 -79 -108 -99 -196 -143
-184 -90 -327 -90 -514 1 -90 43 -114 61 -201 147 -109 108 -168 191 -254 362
-62 122 -98 225 -122 355 -8 44 -24 130 -35 190 -12 61 -25 142 -31 180 -14
99 -13 4753 0 4866 6 46 19 120 30 164 10 44 23 110 29 147 17 104 73 268 141
412 102 215 271 400 445 488 100 51 271 71 372 44z m2925 -9 c17 -12 30 -32
33 -50 3 -18 4 -1672 3 -3675 l-3 -3644 -24 -19 c-21 -18 -42 -19 -266 -19
l-244 0 -20 26 -21 27 0 3276 c0 2178 -4 3288 -10 3312 -18 64 -15 64 -314 67
-172 2 -282 -1 -299 -7 -15 -6 -32 -22 -37 -36 -6 -16 -10 -1231 -10 -3293 0
-1797 -3 -3284 -7 -3305 -10 -65 -27 -68 -303 -65 -227 3 -241 4 -260 24 l-21
21 -5 3634 c-3 1999 -2 3655 1 3680 6 44 8 46 48 56 28 7 332 10 887 9 804 -1
846 -2 872 -19z m1890 11 c22 -6 44 -20 49 -30 6 -11 17 -103 25 -206 8 -103
18 -230 24 -282 24 -236 31 -319 60 -815 6 -99 15 -218 20 -265 5 -47 14 -155
19 -240 25 -385 62 -898 71 -982 5 -51 14 -176 20 -278 6 -102 22 -318 35
-480 23 -280 33 -427 70 -1000 9 -135 20 -288 25 -340 5 -52 17 -205 25 -340
26 -415 35 -542 65 -915 17 -198 39 -502 50 -675 11 -173 23 -358 26 -410 7
-107 -7 -155 -49 -165 -12 -3 -151 -5 -309 -3 -248 3 -290 5 -303 19 -29 29
-52 286 -84 912 -17 343 -19 359 -40 380 -21 21 -29 22 -230 22 -232 0 -239
-2 -260 -69 -5 -17 -15 -274 -21 -571 -6 -297 -13 -563 -16 -591 -10 -94 10
-89 -338 -92 l-305 -3 -32 29 -33 29 12 69 c6 38 19 215 27 394 9 179 22 426
31 550 43 661 64 995 73 1175 6 110 19 335 30 500 11 165 25 377 31 470 6 94
19 296 30 450 10 154 22 325 25 380 3 55 12 208 20 340 8 132 17 299 20 370 3
72 12 198 20 280 8 83 17 202 20 265 3 63 12 212 20 330 8 118 19 310 25 425
6 116 18 296 25 400 22 286 22 283 39 536 16 241 30 358 46 389 5 9 24 24 42
33 29 14 86 17 447 17 289 0 426 -4 453 -12z m1968 -32 c97 -39 130 -61 237
-158 157 -141 265 -330 354 -623 55 -177 83 -335 99 -555 16 -212 9 -1797 -7
-1827 -32 -54 -24 -53 -319 -53 l-275 0 -23 25 c-13 14 -27 38 -30 53 -8 30
-15 461 -20 1277 -2 352 -8 568 -15 599 -6 27 -31 79 -55 116 -35 52 -54 71
-86 84 -114 46 -206 -14 -271 -175 l-34 -84 0 -2385 0 -2385 23 -65 c46 -136
120 -209 210 -210 66 0 105 22 153 86 75 102 72 66 78 946 6 738 7 788 24 805
16 16 44 18 319 19 281 1 302 0 319 -17 18 -18 19 -50 19 -721 0 -756 -4 -838
-54 -1114 -29 -156 -80 -327 -131 -439 -19 -41 -35 -77 -35 -79 0 -2 -19 -35
-41 -72 -149 -248 -357 -411 -553 -433 -117 -13 -215 2 -313 49 -146 69 -275
188 -379 348 -56 85 -138 250 -150 299 -4 16 -15 38 -25 51 -32 41 -74 255
-106 537 -17 150 -18 303 -18 2455 0 1787 3 2307 12 2350 7 30 17 105 23 165
15 166 46 305 102 455 61 162 80 201 162 328 98 151 212 260 346 331 49 25 86
36 200 55 75 13 166 -1 260 -38z m1654 34 c14 -5 33 -24 43 -42 17 -31 18
-111 20 -1538 2 -1071 5 -1512 13 -1531 21 -50 78 -61 146 -28 105 50 178 196
204 409 6 47 15 488 20 990 5 498 14 997 20 1110 10 193 27 387 36 401 2 4 8
39 14 78 12 86 41 149 73 156 12 3 123 4 247 3 l225 -3 9 -38 c7 -27 4 -88
-13 -220 -49 -397 -58 -647 -53 -1482 3 -590 -12 -869 -58 -1120 -10 -55 -24
-134 -30 -175 -18 -107 -80 -299 -134 -411 -39 -81 -59 -108 -121 -168 -41
-39 -75 -80 -75 -90 0 -10 30 -49 68 -87 99 -103 203 -310 246 -494 87 -373
112 -670 99 -1205 -11 -435 -7 -1095 6 -1266 14 -169 33 -311 61 -464 24 -136
25 -167 2 -188 -15 -14 -52 -16 -253 -18 -252 -2 -262 0 -305 50 -30 34 -40
83 -55 266 -14 177 -6 959 12 1150 13 142 6 748 -10 900 -37 332 -119 548
-267 702 -42 45 -75 54 -107 30 -16 -11 -18 -111 -20 -1534 -2 -1422 -3 -1523
-19 -1539 -25 -26 -78 -30 -324 -24 l-223 5 -30 29 -30 29 -3 2731 c-4 3998
-1 4604 26 4610 6 2 25 8 41 14 38 13 465 15 499 2z m-663 -7613 c34 -17 39
-54 39 -287 0 -218 -1 -231 -20 -250 -12 -12 -32 -25 -46 -30 -29 -11 -6934
-12 -6974 -1 -51 14 -60 55 -60 276 0 197 8 261 34 288 11 11 608 13 3512 12
1925 0 3506 -4 3515 -8z m1320 -786 c24 -19 24 -20 24 -243 0 -240 -4 -260
-51 -278 -16 -6 -1805 -10 -4810 -10 -5188 0 -4847 -4 -4858 52 -12 58 -14
135 -6 292 7 159 9 171 30 188 21 17 190 18 4835 18 4725 0 4813 0 4836 -19z
m17 -741 l754 -5 24 -29 25 -28 -3 -249 c-3 -223 -5 -250 -21 -266 -17 -17
-259 -18 -5618 -21 -5049 -2 -5603 -1 -5630 13 -36 19 -48 47 -43 100 3 34 3
130 0 392 -1 50 14 68 70 89 34 12 710 13 4864 11 2654 -1 5164 -4 5578 -7z
m1467 -806 c18 -8 37 -23 41 -32 11 -24 16 -368 7 -421 -6 -30 -17 -50 -35
-64 -27 -20 -40 -20 -6341 -22 -3473 -2 -6320 1 -6326 5 -23 13 -31 84 -31
273 0 204 9 249 52 267 14 5 2505 9 6311 9 5707 1 6292 0 6322 -15z"/>
<path d="M14020 18893 c-30 -9 -72 -20 -92 -25 -54 -13 -62 -34 -42 -108 17
-60 17 -60 -8 -112 -15 -29 -31 -69 -37 -88 -6 -19 -22 -48 -35 -63 -40 -47
-58 -178 -37 -269 8 -35 71 -140 90 -153 5 -3 42 -7 83 -10 64 -5 76 -9 95
-32 45 -56 36 -124 -20 -151 -25 -12 -34 -10 -100 22 -40 20 -78 36 -85 36
-25 0 -132 61 -147 83 -15 24 -29 174 -29 312 1 71 14 111 56 164 17 22 17 26
2 42 -8 9 -47 24 -87 33 -100 23 -105 29 -99 124 4 72 2 80 -21 107 l-25 30
-35 -17 c-20 -10 -58 -20 -86 -24 -67 -9 -85 -30 -79 -89 3 -24 13 -57 23 -72
16 -24 19 -25 30 -10 25 34 96 10 81 -28 -6 -17 -39 -20 -64 -4 -19 12 -79 -9
-101 -35 -14 -16 -90 -197 -123 -288 l-20 -58 68 -74 68 -75 60 -3 60 -3 37
-71 c26 -51 34 -76 27 -88 -11 -20 -37 -21 -66 -1 -16 12 -34 14 -72 9 -36 -5
-56 -3 -72 8 -13 8 -48 23 -78 33 -30 10 -61 20 -67 23 -25 9 -13 -41 27 -112
23 -39 78 -125 123 -191 64 -94 91 -124 121 -139 38 -19 68 -19 733 -18 801 2
754 -3 773 87 8 40 9 65 1 86 -14 40 -1 64 43 79 44 14 64 38 82 96 8 27 25
64 39 84 29 42 42 94 26 104 -13 8 -33 -2 -122 -62 -57 -39 -69 -43 -111 -39
-36 3 -56 12 -91 43 l-45 39 19 26 c22 31 89 69 123 69 96 0 116 29 91 132
-14 56 -15 79 -6 131 6 35 11 89 11 120 0 62 5 58 -85 72 -109 17 -134 42
-118 123 7 36 6 61 -3 93 -8 24 -11 52 -8 62 8 26 -23 21 -49 -8 -15 -18 -37
-28 -74 -34 -61 -9 -83 -24 -83 -57 0 -29 29 -49 92 -64 120 -30 86 -130 -44
-130 -31 0 -45 -6 -68 -32 -51 -55 -64 -94 -68 -204 -3 -79 -1 -108 12 -132
23 -44 71 -77 149 -102 53 -17 71 -28 82 -50 15 -28 14 -30 -41 -89 -55 -59
-57 -61 -108 -61 -44 0 -59 6 -106 40 -113 83 -113 83 -85 192 14 54 14 65 0
113 -30 104 -12 255 40 331 30 44 31 68 5 94 -16 16 -34 20 -92 21 -40 0 -89
6 -108 13 l-35 13 -1 74 c0 120 -2 129 -21 128 -10 -1 -43 -8 -73 -16z m-282
-1171 c3 -30 1 -33 -20 -30 -23 3 -34 27 -24 54 11 28 41 11 44 -24z m711 24
c17 -20 10 -67 -11 -80 -25 -15 -72 4 -76 31 -4 24 33 63 59 63 9 0 22 -6 28
-14z m-938 -16 c24 -13 24 -42 0 -64 -34 -31 -74 10 -51 54 12 23 23 25 51 10z
m459 -15 c17 -21 3 -57 -22 -53 -30 4 -45 32 -29 52 17 20 35 20 51 1z m230
-2 c0 -21 -47 -46 -56 -31 -7 12 24 48 43 48 7 0 13 -8 13 -17z"/>
<path d="M12943 18174 c-21 -9 -15 -56 13 -96 29 -41 44 -47 64 -23 13 16 8
91 -7 106 -11 11 -55 19 -70 13z"/>
<path d="M14153 14998 c-33 -41 -50 -166 -68 -508 -22 -405 -25 -447 -46 -660
-10 -107 -28 -319 -39 -470 -11 -151 -27 -347 -34 -435 -56 -632 -56 -644 0
-665 14 -6 107 -10 207 -10 227 0 227 0 227 102 0 38 -9 163 -19 277 -20 210
-31 337 -56 676 -8 105 -21 269 -29 365 -28 330 -46 565 -56 755 -6 105 -17
251 -25 325 -8 74 -18 158 -21 187 -6 56 -24 82 -41 61z"/>
<path d="M7515 23592 c-58 -33 -104 -63 -198 -129 -97 -68 -120 -118 -74 -161
31 -29 66 -28 126 3 92 49 121 19 150 -152 11 -66 31 -162 45 -215 37 -143 52
-283 37 -339 -23 -82 -24 -93 -1 -122 31 -39 64 -35 142 17 37 25 81 52 98 61
45 23 120 105 120 130 0 38 -35 59 -106 63 -50 3 -68 9 -78 24 -15 21 -8 67
15 94 14 18 88 68 132 90 18 9 49 32 69 50 67 60 150 70 177 22 14 -24 13 -30
-9 -78 l-24 -52 19 -36 c30 -56 58 -54 161 10 47 29 101 63 121 75 26 15 46
40 69 88 l33 66 -25 9 c-14 6 -58 13 -97 17 -78 7 -97 17 -287 152 -47 33 -98
68 -115 77 -16 9 -48 31 -70 48 -22 18 -98 71 -170 119 -157 104 -186 112
-260 69z m257 -261 c18 -15 52 -40 75 -55 52 -32 75 -66 71 -102 -4 -39 -108
-113 -160 -113 -50 -1 -64 16 -78 96 -21 120 -24 171 -10 188 20 24 66 18 102
-14z"/>
<path d="M19923 23359 c-23 -8 -43 -38 -43 -63 0 -22 48 -74 89 -97 20 -10 95
-60 166 -109 246 -170 291 -200 308 -200 44 0 72 73 47 120 -5 10 -53 45 -107
79 -54 34 -125 81 -158 105 -228 162 -261 180 -302 165z"/>
<path d="M21040 23021 c-59 -17 -185 -85 -231 -124 -66 -57 -169 -188 -208
-265 -25 -50 -33 -81 -38 -145 -10 -147 39 -265 166 -399 111 -118 300 -202
412 -183 71 12 110 64 89 119 -13 36 -45 49 -142 56 -74 5 -94 11 -142 40
-159 97 -246 259 -214 402 8 36 54 121 93 169 31 39 123 108 184 139 31 15 83
31 115 35 55 6 63 5 133 -31 157 -81 201 -156 189 -321 -9 -111 2 -133 62
-133 29 0 43 8 76 43 59 61 116 151 116 183 0 20 -17 43 -65 91 -36 35 -81 87
-99 115 -47 69 -115 123 -216 172 -77 37 -93 41 -170 43 -47 1 -96 -2 -110 -6z"/>
<path d="M5635 22550 c-4 -6 -10 -48 -14 -93 -9 -99 -22 -125 -81 -169 -40
-29 -54 -33 -122 -36 -84 -4 -104 -16 -94 -56 4 -17 19 -29 51 -42 41 -15 54
-16 116 -5 78 14 109 35 154 103 16 24 45 63 65 88 32 40 35 51 35 106 0 52
-4 67 -24 88 -25 27 -74 35 -86 16z"/>
<path d="M6021 22414 c-39 -36 -80 -85 -91 -110 -26 -52 -24 -65 25 -264 18
-74 38 -162 45 -195 6 -33 23 -106 37 -163 20 -82 23 -109 14 -128 -6 -13 -16
-24 -23 -24 -26 0 -96 58 -200 166 -104 108 -108 113 -108 155 1 24 7 55 15
69 18 31 19 102 3 118 -35 35 -103 -3 -215 -119 -99 -104 -121 -155 -85 -199
15 -18 31 -24 73 -26 30 -2 65 -6 79 -9 32 -8 428 -400 446 -442 20 -47 7 -90
-41 -138 -71 -72 -104 -69 -205 17 -34 29 -75 62 -90 73 -62 45 -267 215 -295
244 -28 30 -30 39 -34 119 -3 90 -9 102 -49 102 -36 0 -74 -32 -134 -112 -50
-69 -53 -75 -51 -129 1 -38 11 -80 31 -125 30 -70 122 -343 122 -364 0 -6 14
-47 32 -91 26 -67 29 -83 20 -104 -14 -30 -40 -32 -80 -7 -37 22 -183 144
-244 203 -56 53 -60 79 -27 154 25 57 19 88 -21 105 -47 20 -71 6 -147 -83
-131 -153 -154 -206 -111 -257 18 -22 27 -25 85 -23 74 3 104 -9 173 -69 80
-69 302 -252 336 -278 40 -31 54 -59 54 -112 0 -57 -32 -103 -104 -150 l-61
-40 -85 6 c-47 4 -103 11 -125 16 -22 6 -82 7 -132 4 -71 -5 -97 -3 -109 7
-31 26 -92 131 -104 179 -14 59 -3 86 45 106 37 15 65 48 65 78 0 26 -44 81
-93 117 -72 53 -129 34 -179 -58 -41 -76 -44 -118 -13 -209 15 -44 39 -101 55
-129 40 -71 63 -149 55 -185 -12 -55 -67 -66 -128 -25 -51 35 -67 71 -67 149
0 74 -11 86 -74 86 -31 0 -40 -7 -82 -62 -26 -35 -70 -99 -97 -143 -40 -66
-48 -86 -43 -113 3 -19 10 -40 17 -48 17 -20 62 -17 91 6 69 54 96 48 235 -54
50 -36 93 -66 96 -66 8 0 257 -167 280 -187 13 -13 17 -32 17 -92 0 -83 3 -92
38 -110 52 -28 85 4 204 193 61 96 70 134 42 174 -20 29 -58 28 -109 -3 -22
-14 -52 -25 -66 -25 -32 0 -171 82 -199 117 -42 54 -20 90 75 123 70 24 179
26 250 5 28 -9 89 -18 137 -22 l87 -6 38 42 c21 23 47 59 58 80 38 73 79 126
152 201 49 50 75 85 79 106 9 48 -13 137 -52 210 -31 59 -71 176 -111 324 -8
30 -22 71 -30 90 -23 50 -30 128 -11 135 21 8 93 -35 169 -102 37 -32 94 -80
128 -108 68 -55 79 -78 62 -135 -18 -59 -14 -97 11 -114 55 -39 103 -3 207
154 35 54 96 125 169 195 62 61 120 122 128 137 18 35 18 101 -1 137 -8 16
-24 81 -35 145 -11 63 -34 171 -50 238 -41 168 -39 248 7 248 19 0 291 -275
298 -302 4 -14 -2 -45 -15 -77 -17 -45 -19 -56 -8 -79 18 -36 57 -49 98 -32
47 19 180 158 215 224 l29 56 -20 27 c-26 34 -60 40 -121 19 -61 -21 -78 -11
-188 111 -49 54 -140 150 -202 214 l-113 116 0 94 c0 104 -7 119 -52 119 -20
0 -46 -17 -97 -66z"/>
<path d="M21900 22411 c-34 -21 -211 -201 -220 -226 -23 -62 -1 -115 49 -115
32 0 95 35 114 63 8 13 40 37 70 53 54 28 56 28 76 10 32 -29 63 -105 56 -135
-7 -29 -382 -416 -430 -443 -44 -25 -59 -22 -109 21 -55 47 -97 59 -131 37
-65 -42 -38 -105 102 -241 59 -57 135 -132 169 -165 52 -51 66 -60 97 -60 26
0 40 6 51 22 23 33 20 91 -5 114 -28 25 -49 75 -49 116 0 28 19 52 153 188 83
86 177 184 207 218 68 75 95 84 145 46 41 -31 65 -71 65 -109 0 -17 -20 -51
-55 -95 -68 -86 -77 -119 -42 -154 40 -39 78 -35 134 17 105 95 193 190 199
213 10 38 -51 109 -326 387 -214 216 -249 247 -275 247 -16 0 -37 -5 -45 -9z"/>
<path d="M22705 21538 c-19 -23 -25 -39 -21 -57 19 -91 20 -87 -20 -130 -20
-23 -80 -76 -132 -119 -52 -42 -120 -97 -150 -122 -180 -149 -193 -155 -265
-125 -48 20 -80 19 -100 -3 -35 -39 -17 -97 56 -180 23 -27 69 -84 102 -127
95 -123 103 -132 140 -150 33 -15 38 -15 60 -1 49 32 35 127 -28 185 -66 60
-53 140 29 179 24 12 50 22 58 22 12 0 133 -119 152 -150 15 -25 98 -88 138
-105 60 -25 182 -31 251 -11 51 15 70 27 121 80 82 86 99 122 99 217 0 66 -5
84 -35 142 -19 37 -67 106 -107 155 -40 48 -98 122 -130 166 -79 108 -138 166
-167 166 -15 0 -35 -12 -51 -32z m193 -352 c29 -28 63 -76 91 -130 37 -72 43
-91 38 -126 -11 -86 -91 -148 -176 -136 -61 8 -115 42 -188 119 -88 92 -95
141 -27 194 20 15 62 49 93 75 75 64 105 64 169 4z"/>
<path d="M23177 20564 c-105 -25 -256 -127 -328 -222 -74 -96 -127 -264 -114
-359 8 -60 78 -219 112 -256 89 -94 196 -148 333 -166 160 -21 350 55 457 183
92 110 110 135 125 177 48 139 51 258 9 365 -44 112 -151 221 -256 262 -86 33
-239 40 -338 16z m238 -155 c22 -6 70 -30 106 -54 55 -36 69 -50 89 -96 34
-81 37 -160 9 -255 -20 -69 -30 -86 -79 -134 -78 -77 -126 -108 -211 -132 -94
-26 -170 -20 -255 22 -124 61 -174 138 -176 270 -1 100 29 186 85 241 114 112
305 173 432 138z"/>
<path d="M23973 19778 c-12 -13 -32 -48 -46 -79 -25 -56 -54 -84 -114 -108
-17 -7 -46 -24 -64 -37 -18 -13 -48 -29 -68 -35 -19 -7 -58 -26 -86 -44 -27
-17 -63 -36 -80 -42 -16 -6 -52 -24 -79 -42 -56 -35 -108 -40 -173 -17 -55 19
-103 -9 -103 -60 0 -23 49 -133 71 -160 25 -30 73 -46 168 -55 53 -5 119 -11
146 -14 28 -3 77 -7 110 -9 152 -11 321 -29 342 -37 58 -22 6 -78 -137 -147
-41 -19 -94 -48 -118 -63 -79 -50 -141 -46 -194 12 -33 36 -81 40 -99 8 -19
-37 -2 -105 57 -219 54 -107 99 -160 132 -160 38 1 72 48 72 101 0 41 59 98
139 135 31 13 65 30 76 36 11 7 61 33 110 58 50 26 128 69 174 95 l85 48 60
-32 c69 -36 105 -39 129 -13 33 36 16 99 -54 209 -24 35 -51 65 -67 72 -15 6
-108 15 -207 21 -246 13 -423 29 -466 40 -44 12 -66 50 -46 80 6 11 35 29 62
39 28 11 100 45 160 76 97 49 115 56 155 52 29 -3 48 -11 55 -23 20 -35 46
-54 73 -54 33 0 72 36 72 67 0 47 -123 275 -168 311 -24 19 -56 14 -79 -10z"/>
<path d="M3918 19721 c-13 -11 -37 -43 -52 -73 -16 -29 -50 -78 -75 -108 -84
-100 -103 -130 -133 -218 -53 -152 -31 -276 78 -429 55 -77 131 -136 255 -197
109 -53 192 -71 287 -61 169 16 280 101 391 299 33 59 91 236 91 279 0 50 -30
126 -61 151 -39 33 -63 33 -96 0 -25 -25 -25 -29 -20 -107 7 -96 -12 -200 -49
-263 -29 -51 -95 -119 -153 -159 -42 -29 -49 -30 -150 -30 l-106 0 -96 53
c-133 74 -179 121 -214 216 -32 87 -31 134 5 242 36 108 146 184 263 184 57 0
105 25 114 58 8 32 -39 89 -93 113 -24 10 -61 30 -81 44 -45 30 -72 32 -105 6z"/>
<path d="M3403 18755 c-12 -8 -31 -41 -43 -73 -11 -31 -29 -73 -40 -93 -11
-20 -31 -67 -44 -105 -31 -89 -70 -185 -102 -254 -36 -77 -94 -244 -94 -272 1
-29 28 -64 57 -73 18 -5 29 1 50 25 98 109 103 113 152 108 25 -3 74 -17 109
-31 34 -15 90 -38 125 -53 34 -14 96 -40 137 -58 41 -18 97 -41 123 -51 69
-25 81 -47 72 -144 -7 -85 0 -112 36 -131 54 -29 116 72 225 369 40 110 41
124 12 151 -39 36 -69 26 -127 -40 -29 -33 -63 -63 -75 -66 -25 -6 -151 35
-246 80 -60 27 -147 64 -250 103 -90 34 -110 55 -110 115 0 30 8 65 21 90 12
23 30 67 40 97 24 68 42 88 91 102 36 9 46 7 103 -20 35 -17 72 -31 82 -31 31
0 53 23 59 61 5 32 2 40 -32 74 -37 36 -124 85 -152 85 -7 0 -35 11 -62 25
-57 29 -87 31 -117 10z"/>
<path d="M24505 18726 c-22 -7 -88 -34 -147 -61 -110 -50 -130 -69 -130 -120
0 -67 83 -86 170 -40 61 33 94 32 133 -3 26 -23 33 -38 36 -79 5 -47 3 -54
-22 -77 -15 -14 -33 -26 -39 -26 -6 0 -44 -16 -84 -35 -40 -19 -94 -41 -120
-49 -27 -8 -66 -23 -88 -34 -63 -32 -224 -92 -248 -92 -30 0 -63 25 -82 63
-24 47 -65 87 -89 87 -29 0 -65 -40 -65 -72 0 -27 21 -89 103 -298 80 -205
121 -247 182 -185 29 28 33 76 10 115 -8 14 -14 39 -15 57 0 44 56 90 152 124
72 26 144 56 302 127 86 39 169 52 205 32 25 -13 51 -66 51 -103 0 -29 -24
-51 -115 -106 -38 -24 -76 -50 -82 -59 -22 -27 -15 -69 13 -91 34 -27 67 -26
129 3 28 12 68 29 90 36 99 32 165 78 165 116 0 12 -21 76 -46 141 -25 65 -59
154 -76 198 -16 44 -35 90 -43 101 -8 12 -23 48 -34 80 -30 87 -91 226 -109
247 -17 20 -51 21 -107 3z"/>
<path d="M24917 17692 c-10 -10 -24 -42 -32 -70 -20 -65 -43 -87 -109 -103
-28 -6 -80 -23 -116 -37 -36 -13 -101 -32 -145 -42 -44 -10 -106 -30 -139 -44
-32 -14 -71 -26 -86 -26 -39 0 -91 24 -119 54 -32 34 -74 34 -106 1 -14 -13
-25 -30 -25 -37 0 -19 66 -258 84 -304 8 -22 22 -68 31 -104 9 -36 31 -112 50
-170 18 -58 41 -131 50 -163 18 -64 42 -86 102 -94 32 -4 55 4 142 49 124 63
138 79 113 128 -21 41 -62 55 -124 41 -65 -15 -97 8 -126 90 -29 79 -72 249
-72 283 0 29 42 64 108 89 59 23 96 21 128 -7 39 -33 37 -78 -4 -143 -48 -75
-39 -120 28 -136 55 -14 253 45 302 90 22 20 23 71 3 100 -8 12 -32 27 -53 33
-70 23 -82 35 -82 88 0 57 23 84 85 101 54 15 140 14 153 -1 18 -23 92 -266
92 -303 0 -52 -14 -72 -70 -100 -73 -37 -99 -96 -60 -135 49 -49 279 4 326 75
16 24 15 29 -4 83 -12 31 -30 96 -41 144 -11 47 -34 128 -50 180 -16 51 -44
143 -62 203 -35 121 -50 156 -80 186 -24 24 -71 25 -92 1z"/>
<path d="M3107 17636 c-143 -60 -192 -124 -260 -338 -114 -360 -120 -410 -56
-443 35 -18 68 -8 93 29 9 15 32 34 51 43 33 16 37 15 127 -15 51 -17 108 -34
126 -37 18 -4 60 -18 93 -31 33 -13 91 -31 130 -39 116 -25 159 -58 180 -139
15 -61 32 -78 69 -74 45 4 85 63 109 158 11 41 31 107 45 146 42 117 46 212
10 248 -42 43 -104 -7 -137 -109 -20 -62 -26 -72 -60 -89 -34 -16 -42 -17 -74
-5 -20 8 -45 26 -56 41 l-21 28 24 97 c27 109 32 239 12 310 -7 24 -34 71 -60
105 -37 50 -61 70 -114 97 -90 46 -152 50 -231 17z m189 -191 c20 -15 42 -43
50 -61 28 -67 10 -245 -32 -309 -35 -53 -126 -50 -250 10 -67 33 -88 57 -86
100 1 36 64 208 85 233 7 9 35 26 62 39 64 31 120 27 171 -12z"/>
<path d="M2689 16645 c-36 -20 -46 -48 -60 -178 -12 -105 -11 -117 5 -141 24
-37 41 -41 86 -21 60 27 100 14 174 -53 34 -31 81 -73 105 -92 38 -31 43 -40
43 -75 0 -51 -22 -68 -104 -85 -35 -6 -89 -23 -122 -37 -65 -27 -88 -24 -158
22 -21 14 -47 25 -58 25 -51 0 -88 -77 -112 -228 -10 -62 -9 -77 5 -107 16
-33 29 -40 67 -36 8 1 38 26 66 56 38 40 60 55 90 61 21 3 77 21 124 39 47 18
110 38 140 45 30 7 85 26 122 42 92 39 145 45 192 23 42 -20 90 -84 84 -112
-2 -10 -27 -31 -56 -46 -61 -33 -87 -66 -78 -101 8 -33 101 -78 172 -84 48 -4
56 -2 82 24 35 36 72 130 72 185 0 28 -12 64 -36 110 -29 55 -53 83 -123 141
-47 40 -120 102 -162 138 -42 36 -125 106 -185 155 -153 126 -236 212 -253
260 -26 77 -66 100 -122 70z"/>
<path d="M24410 16491 c-47 -10 -57 -17 -77 -54 -21 -41 -22 -149 -1 -197 22
-50 84 -122 127 -145 57 -31 258 -27 411 8 353 81 393 77 419 -42 21 -100 7
-131 -66 -149 -138 -34 -278 -64 -338 -72 -38 -6 -100 -18 -137 -27 -63 -16
-69 -16 -107 1 -22 10 -52 31 -67 47 -33 35 -66 37 -93 7 -32 -33 -34 -73 -12
-203 21 -119 21 -120 63 -156 l41 -36 -23 -73 -23 -73 22 -269 c26 -311 38
-375 81 -451 55 -99 118 -137 222 -137 125 0 206 46 262 150 56 103 65 174 44
360 -13 123 -7 155 42 188 25 17 47 22 96 22 84 0 107 -12 135 -72 40 -86 89
-102 134 -42 l27 36 -12 116 c-22 221 -44 282 -98 282 -33 0 -51 -17 -80 -75
-36 -72 -40 -74 -253 -95 -107 -11 -230 -25 -274 -30 -44 -6 -90 -10 -102 -10
-28 0 -93 57 -134 119 -34 49 -33 58 8 148 23 50 122 92 263 110 63 8 166 28
228 44 150 38 163 38 216 -11 24 -22 57 -43 73 -46 26 -5 34 -1 57 28 29 39
33 76 12 135 -7 21 -23 100 -35 174 -63 394 -94 489 -161 489 -36 0 -67 -31
-82 -83 -14 -46 -47 -74 -97 -83 -20 -3 -94 -19 -166 -35 -309 -70 -435 -71
-435 -4 0 15 19 48 46 81 25 31 44 63 42 71 -8 43 -115 71 -198 54z m553
-1369 c28 -25 40 -90 41 -232 1 -130 0 -137 -27 -182 -32 -56 -51 -68 -106
-68 -54 0 -122 51 -133 100 -5 19 -11 108 -15 196 l-6 162 25 16 c29 19 130
36 173 29 17 -3 38 -12 48 -21z"/>
<path d="M2475 15441 c-49 -21 -49 -25 -75 -352 -11 -140 -24 -286 -30 -325
-5 -38 -10 -95 -10 -127 0 -51 4 -62 29 -88 16 -16 37 -29 46 -29 10 0 42 24
72 54 31 31 67 56 84 60 16 3 125 -3 242 -14 360 -35 351 -32 414 -128 62 -92
105 -82 138 33 22 74 68 557 61 635 -10 110 -68 200 -161 249 -56 30 -179 30
-237 0 -131 -67 -194 -202 -223 -481 -4 -36 -16 -80 -26 -97 -18 -30 -21 -31
-93 -31 -88 0 -119 10 -142 45 -15 24 -16 40 -5 182 14 196 23 219 101 248 85
32 103 100 39 147 -27 21 -190 34 -224 19z m745 -197 c59 -50 64 -71 57 -246
-7 -174 -17 -207 -67 -233 -70 -36 -189 -3 -215 59 -28 67 28 358 77 403 56
50 101 56 148 17z"/>
<path d="M2545 14337 c-84 -42 -124 -81 -167 -167 l-33 -65 0 -298 0 -299 28
-24 c50 -43 81 -32 130 45 12 19 37 44 55 54 37 22 61 23 386 20 l218 -3 35
-37 c19 -21 49 -53 65 -70 36 -39 57 -41 86 -10 34 36 43 108 40 308 -3 168
-5 188 -26 227 -18 34 -28 42 -50 42 -55 0 -92 -62 -92 -155 0 -69 -17 -118
-45 -129 -33 -12 -93 -6 -115 12 -20 16 -24 33 -32 133 -11 136 -52 254 -114
330 -53 66 -145 111 -234 116 -58 4 -73 1 -135 -30z m216 -174 c38 -23 75 -95
89 -176 16 -90 6 -152 -30 -189 -28 -27 -31 -28 -138 -28 -95 0 -113 3 -135
21 -37 28 -50 81 -45 180 7 138 45 196 145 217 39 9 66 3 114 -25z"/>
<path d="M24653 14338 c-29 -33 -40 -80 -42 -180 -2 -144 23 -218 76 -218 38
0 58 15 92 69 38 59 76 76 158 69 38 -3 61 -11 76 -27 21 -20 22 -30 22 -182
0 -184 1 -183 -89 -194 -79 -10 -131 8 -167 58 -37 51 -78 78 -105 71 -12 -3
-31 -24 -44 -46 -20 -36 -23 -55 -23 -152 0 -61 6 -134 13 -162 12 -46 11 -60
-8 -140 -28 -118 -46 -294 -40 -396 4 -69 11 -95 41 -157 20 -41 34 -78 31
-83 -3 -5 -22 -16 -41 -26 -52 -25 -71 -57 -84 -142 -13 -93 1 -148 44 -168
24 -11 40 -11 112 3 70 14 98 15 172 6 48 -6 170 -18 271 -26 100 -9 193 -20
205 -24 37 -14 87 -78 87 -111 0 -41 -61 -107 -105 -116 -21 -4 -92 6 -192 26
-181 37 -206 42 -322 63 -65 12 -96 24 -137 52 -95 66 -165 48 -182 -45 -13
-76 -1 -123 46 -173 61 -67 370 -359 400 -379 31 -21 51 -55 52 -89 0 -53 -40
-62 -134 -29 -32 11 -93 24 -135 29 -126 16 -142 27 -195 133 -34 70 -62 84
-98 51 -32 -28 -46 -63 -68 -168 -26 -129 -27 -198 0 -225 29 -29 53 -25 104
19 25 22 58 42 74 45 34 8 182 -14 357 -53 72 -16 150 -32 174 -36 57 -8 98
-30 107 -57 17 -58 47 -106 71 -117 23 -10 31 -9 52 7 55 40 99 215 71 281
-10 26 -254 267 -405 401 -72 64 -95 96 -95 131 0 44 35 49 127 20 33 -11 95
-24 139 -31 125 -18 143 -26 164 -74 10 -22 21 -60 25 -84 13 -79 94 -99 127
-32 30 60 71 278 64 337 -6 51 19 177 45 225 5 10 11 61 12 112 2 87 0 96 -22
120 -34 36 -65 33 -106 -11 -39 -43 -81 -52 -195 -41 -41 4 -156 12 -255 17
-99 5 -194 15 -210 21 -41 15 -95 69 -95 95 0 37 14 41 120 31 147 -13 191 -1
262 72 63 65 88 109 113 202 10 36 29 76 42 90 20 22 32 25 86 24 107 0 145
-35 161 -146 8 -53 33 -78 78 -78 43 0 57 33 73 171 8 68 17 147 21 176 11 86
-12 133 -64 133 -19 0 -43 -15 -81 -51 l-53 -52 -76 6 c-316 24 -472 38 -504
47 -20 6 -50 26 -67 45 -26 30 -31 44 -31 85 0 58 21 107 58 135 26 19 40 20
317 17 312 -4 289 0 402 -61 37 -20 45 -21 70 -9 42 20 57 61 61 174 5 111 -7
150 -53 180 -34 22 -61 10 -103 -48 -41 -58 -80 -78 -150 -78 -61 0 -104 14
-120 41 -14 22 -33 248 -25 291 3 15 13 33 22 41 34 31 167 41 213 16 10 -5
36 -34 58 -64 35 -48 45 -55 75 -55 27 0 39 7 59 33 23 30 26 43 26 120 0 47
-4 89 -10 92 -5 3 -10 26 -10 51 0 79 -70 113 -121 58 -49 -53 -55 -54 -377
-54 l-299 0 -39 26 c-21 14 -53 41 -71 60 -38 40 -52 42 -80 12z m283 -1289
c52 -13 74 -40 74 -88 0 -39 -33 -111 -66 -142 -51 -48 -154 -29 -194 36 -22
36 -28 122 -10 155 25 46 105 62 196 39z"/>
<path d="M3201 13269 c-91 -9 -124 -25 -151 -72 -22 -40 2 -79 55 -91 76 -16
123 -37 140 -62 22 -33 41 -227 36 -356 -1 -37 -32 -55 -118 -68 -60 -10 -76
-9 -101 4 -64 33 -55 121 17 174 41 30 43 81 5 119 -26 26 -27 26 -132 19
-128 -7 -176 -20 -208 -51 -41 -41 -32 -74 36 -138 48 -46 60 -63 60 -88 0
-44 -47 -88 -97 -91 -105 -5 -145 10 -164 59 -4 12 -14 81 -20 152 -15 166
-11 178 76 220 78 37 103 68 86 110 -20 47 -47 55 -162 47 -165 -10 -197 -37
-185 -153 3 -37 13 -148 22 -246 38 -444 47 -490 103 -504 43 -11 74 9 104 65
16 29 38 59 50 67 14 8 101 22 232 35 116 11 234 25 264 30 30 6 67 10 82 10
30 0 101 -53 118 -88 17 -35 55 -48 85 -29 40 27 47 72 31 210 -8 67 -21 210
-30 317 -18 225 -33 348 -46 371 -9 18 -61 40 -88 38 -9 -1 -54 -5 -100 -10z"/>
<path d="M2710 12094 c-36 -7 -89 -18 -118 -25 -30 -6 -62 -19 -73 -30 -25
-25 -25 -93 1 -182 10 -38 28 -123 39 -190 12 -67 28 -149 36 -182 9 -33 25
-106 35 -163 28 -156 49 -175 156 -149 32 9 84 18 114 22 92 11 127 24 154 56
34 40 33 72 -1 99 -25 19 -38 21 -132 18 l-105 -3 -23 34 c-15 22 -23 49 -23
76 0 38 4 45 38 68 36 25 112 44 271 68 41 6 110 22 154 35 43 13 101 26 127
30 43 6 50 3 77 -22 17 -16 38 -50 47 -76 35 -96 84 -124 125 -71 34 42 35 67
8 196 -14 67 -33 163 -43 212 -31 163 -76 210 -148 154 -24 -19 -26 -26 -26
-103 0 -116 6 -112 -230 -165 -174 -39 -356 -71 -398 -71 -26 0 -36 7 -52 33
-11 17 -25 48 -30 67 -8 30 -7 37 16 61 16 17 46 32 78 40 63 14 83 24 119 57
35 34 36 74 1 101 -31 25 -92 26 -194 5z"/>
<path d="M25711 11777 c-62 -31 -103 -82 -140 -172 -27 -64 -32 -87 -27 -122
8 -58 53 -149 89 -179 66 -56 141 -7 87 57 -35 40 -58 82 -70 130 -11 43 -10
51 19 111 27 58 35 67 76 82 73 28 95 65 59 100 -21 21 -41 20 -93 -7z"/>
<path d="M3552 11175 c-35 -14 -82 -37 -105 -53 -35 -23 -43 -34 -45 -64 -3
-29 2 -40 25 -58 25 -19 35 -21 94 -15 l65 7 32 -36 c17 -19 38 -61 48 -93 9
-32 30 -100 47 -151 38 -118 34 -130 -65 -177 -81 -39 -97 -41 -138 -20 -55
28 -64 77 -26 128 29 39 49 98 40 121 -8 21 -55 46 -86 46 -44 0 -143 -30
-215 -66 -55 -26 -74 -41 -79 -60 -11 -41 15 -73 82 -104 65 -29 79 -49 75
-105 -2 -41 -25 -62 -86 -80 -104 -30 -154 -15 -175 53 -7 20 -27 75 -45 122
-43 111 -50 175 -22 200 11 11 36 25 56 31 53 17 81 47 81 86 0 46 -30 73 -80
73 -73 0 -253 -73 -264 -108 -7 -21 30 -174 78 -327 20 -60 59 -184 87 -275
29 -91 57 -171 62 -178 6 -7 23 -20 39 -28 40 -21 61 -6 81 59 25 79 73 119
168 142 41 10 90 26 109 35 19 10 71 25 115 35 44 10 110 30 147 46 93 40 117
38 177 -15 27 -24 59 -47 71 -51 21 -7 22 -11 15 -74 -4 -36 -13 -79 -20 -96
-15 -36 -95 -87 -190 -121 -36 -13 -86 -34 -113 -47 -26 -14 -65 -30 -87 -37
-22 -7 -69 -28 -105 -47 -68 -36 -95 -39 -211 -17 -30 5 -41 2 -58 -15 -31
-31 -26 -77 18 -183 22 -51 50 -120 64 -153 14 -33 34 -82 46 -110 36 -86 72
-177 97 -245 29 -77 62 -110 108 -110 30 0 41 9 89 68 52 65 60 70 158 111 57
24 131 53 164 65 33 13 78 32 100 43 62 32 162 63 199 63 22 0 45 -9 64 -25
52 -44 104 -26 118 41 7 38 -43 195 -83 256 -69 109 -120 104 -154 -16 -23
-84 -36 -100 -108 -126 -31 -11 -76 -31 -101 -44 -25 -13 -69 -31 -99 -41 -30
-10 -80 -30 -110 -45 -31 -16 -85 -38 -119 -49 -62 -21 -65 -21 -100 -4 -32
16 -42 31 -81 118 -48 107 -62 184 -40 211 17 21 129 77 199 99 30 10 69 26
87 37 17 10 64 30 104 43 40 14 82 31 94 39 12 8 40 20 62 26 37 11 45 10 87
-11 25 -12 54 -31 63 -41 21 -23 45 -23 74 1 32 26 31 80 -3 151 -14 30 -36
83 -48 118 -18 48 -35 73 -73 107 l-49 45 10 43 c14 57 2 113 -94 417 -20 63
-54 169 -75 235 -21 66 -40 134 -44 151 -15 78 -85 94 -203 49z"/>
<path d="M23980 10199 c-34 -13 -52 -40 -101 -155 -50 -117 -63 -202 -34 -234
25 -28 47 -25 80 10 45 47 82 53 177 25 91 -26 129 -50 142 -87 13 -38 0 -70
-38 -95 -58 -37 -124 -52 -290 -63 -87 -7 -169 -15 -182 -20 -33 -13 -58 -44
-94 -116 -25 -50 -30 -72 -25 -97 10 -46 23 -57 66 -57 36 0 41 4 73 54 30 48
40 55 83 65 26 6 102 15 168 20 86 6 133 15 165 30 99 45 154 18 218 -109 52
-103 52 -125 -5 -162 -50 -34 -59 -55 -40 -101 19 -43 90 -80 158 -81 81 -1
129 63 129 172 0 53 -5 66 -53 143 -29 46 -68 110 -87 142 -19 32 -45 75 -57
95 -27 43 -30 87 -7 96 31 12 88 6 129 -14 47 -23 72 -59 81 -121 12 -83 54
-112 102 -71 20 16 82 147 125 264 25 67 17 107 -24 122 -22 7 -36 3 -85 -28
-33 -20 -65 -36 -73 -36 -20 0 -202 69 -236 90 -16 10 -53 25 -81 33 -28 8
-73 26 -100 40 -27 13 -67 30 -89 37 -79 26 -94 46 -110 148 -4 26 -15 48 -28
57 -24 17 -23 17 -57 4z"/>
<path d="M23730 9132 c-25 -1 -75 -7 -113 -13 -136 -22 -294 -163 -334 -298
-21 -72 -21 -206 1 -291 40 -155 215 -328 385 -381 104 -32 182 -35 281 -9 47
12 103 30 125 40 66 30 155 126 203 221 41 82 42 87 44 189 2 91 -1 113 -22
165 -81 201 -269 356 -450 373 -41 4 -95 6 -120 4z m145 -178 c28 -8 85 -36
127 -64 117 -75 159 -154 161 -300 1 -106 -15 -144 -85 -210 -112 -105 -310
-119 -455 -34 -60 35 -158 128 -176 167 -9 19 -17 77 -20 141 -8 153 3 176
125 259 38 25 85 49 105 52 21 4 45 8 53 10 25 5 112 -6 165 -21z"/>
<path d="M4026 8944 c-25 -25 -19 -50 36 -153 28 -53 68 -127 88 -166 112
-212 144 -267 171 -290 37 -30 49 -31 83 -4 34 26 33 40 -9 119 -19 36 -51 98
-70 138 -19 40 -43 85 -53 100 -11 15 -43 74 -72 132 -30 58 -60 113 -68 123
-19 22 -85 23 -106 1z"/>
<path d="M23074 8388 c-39 -10 -99 -75 -124 -133 -33 -76 -34 -109 -10 -186
27 -83 94 -163 188 -225 31 -21 59 -41 62 -44 4 -6 45 -34 161 -110 92 -61
155 -105 167 -119 18 -22 15 -90 -8 -126 -25 -41 -88 -85 -122 -85 -15 0 -46
15 -70 33 -53 41 -156 107 -166 107 -4 0 -41 25 -82 55 -214 154 -212 152
-224 237 -8 56 -39 98 -71 98 -42 0 -134 -115 -211 -265 -22 -44 -43 -68 -78
-92 -110 -72 -165 -149 -173 -241 -11 -119 66 -227 296 -417 245 -202 269
-231 237 -294 -27 -51 -90 -111 -118 -111 -35 0 -85 19 -91 35 -3 7 -39 38
-80 69 -41 31 -118 93 -170 139 -53 45 -107 90 -122 100 -33 24 -67 91 -65
130 4 68 1 77 -34 94 -46 21 -82 7 -139 -57 -80 -88 -117 -152 -124 -209 -3
-29 -11 -54 -17 -56 -6 -2 -27 -6 -47 -9 -51 -9 -77 -31 -381 -331 -341 -335
-330 -291 -119 -489 46 -42 56 -47 84 -42 72 14 85 64 37 139 -21 34 -30 60
-30 90 0 40 4 46 122 161 68 65 134 123 147 128 19 7 34 3 70 -19 44 -28 111
-111 111 -139 0 -7 -14 -29 -31 -49 l-32 -36 -72 7 c-67 6 -73 5 -93 -17 -31
-32 -27 -69 12 -120 68 -90 183 -189 217 -189 10 0 32 15 49 33 29 30 30 35
24 89 -5 49 -3 63 16 93 30 48 59 53 114 21 61 -35 106 -92 106 -133 0 -37
-19 -62 -139 -185 -107 -110 -137 -118 -212 -57 -58 46 -139 18 -139 -47 0
-27 11 -46 52 -91 29 -32 69 -70 90 -86 21 -15 38 -32 38 -37 0 -16 47 -22 72
-9 32 16 155 147 176 186 9 18 38 47 64 66 76 53 263 232 297 283 38 59 39 78
2 115 -33 33 -67 37 -111 14 -27 -14 -33 -14 -61 1 -32 16 -117 93 -192 173
-23 25 -74 77 -113 117 -126 128 -137 146 -141 227 -6 96 15 132 79 140 125
16 155 18 175 10 11 -4 52 -37 90 -73 39 -36 100 -90 137 -120 213 -174 226
-189 226 -258 0 -85 43 -133 104 -118 23 6 82 74 176 205 19 27 73 95 120 151
47 57 109 132 138 167 61 74 70 114 32 145 -30 24 -49 23 -108 -8 -61 -31 -78
-27 -141 30 -25 23 -75 64 -111 92 -36 27 -67 52 -70 55 -3 3 -44 38 -92 76
-140 113 -173 168 -129 212 19 19 29 21 71 15 100 -13 143 32 96 103 -52 78
-38 138 39 163 32 11 41 9 93 -18 32 -17 92 -53 133 -81 41 -29 130 -89 199
-135 144 -95 177 -136 165 -206 -9 -51 18 -80 75 -80 37 0 42 4 77 56 21 31
50 77 64 102 15 25 57 88 94 141 69 100 116 171 150 226 11 18 35 55 53 81 33
49 35 73 6 103 -19 20 -77 17 -116 -6 -57 -34 -73 -33 -133 2 -30 19 -68 43
-83 55 -15 12 -72 51 -128 88 -223 147 -284 205 -269 251 9 28 58 44 109 37
62 -10 86 5 86 50 0 33 -14 73 -30 84 -4 3 -27 21 -50 40 -49 40 -81 50 -126
38z"/>
<path d="M4977 8198 c-35 -27 -38 -63 -12 -146 14 -42 25 -80 25 -84 0 -19
-79 -93 -139 -129 -81 -48 -267 -175 -308 -210 -33 -27 -109 -53 -139 -47 -10
2 -30 27 -45 56 -36 68 -28 93 52 162 74 65 92 96 79 141 -11 39 -25 49 -65
49 -28 0 -44 -8 -135 -70 -20 -14 -62 -42 -93 -63 -69 -46 -92 -77 -84 -116 3
-15 34 -66 69 -113 35 -47 99 -141 142 -209 44 -68 97 -145 118 -171 21 -26
56 -78 77 -115 42 -74 74 -100 112 -90 13 4 58 32 99 63 41 31 92 67 113 80
67 43 97 122 61 158 -18 19 -85 21 -117 5 -12 -7 -37 -25 -55 -40 -26 -24 -42
-29 -82 -29 -60 0 -96 28 -105 80 -10 62 30 101 245 240 21 14 87 58 146 98
59 41 118 78 131 83 38 14 96 -15 121 -60 12 -22 29 -42 38 -45 31 -12 81 -6
97 12 24 27 22 85 -4 108 -12 10 -32 43 -45 72 -13 29 -50 85 -82 125 -33 39
-68 90 -80 113 -22 43 -84 104 -105 104 -7 0 -21 -6 -30 -12z"/>
<path d="M5452 7510 c-12 -5 -27 -21 -34 -35 -12 -26 -10 -34 26 -132 13 -36
14 -48 1 -96 -8 -30 -28 -81 -44 -114 -17 -33 -38 -90 -46 -128 -21 -88 -37
-118 -77 -143 -35 -22 -127 -42 -190 -42 -45 0 -78 28 -78 66 0 37 -36 91 -65
98 -37 9 -98 -26 -140 -80 -53 -71 -45 -115 38 -191 70 -65 100 -70 285 -48
201 24 210 24 239 -9 30 -35 29 -57 -4 -88 -75 -68 -116 -81 -169 -53 -39 20
-87 19 -107 -3 -32 -35 -21 -74 41 -150 31 -38 78 -97 105 -130 53 -67 85 -82
123 -57 30 20 38 52 30 124 -6 54 -5 61 20 91 15 17 50 49 78 70 28 21 69 54
91 74 22 19 64 55 93 78 29 24 89 73 133 111 44 37 83 66 87 64 4 -2 33 -16
64 -31 31 -15 65 -26 75 -24 23 4 43 44 43 90 0 32 -10 48 -71 115 -38 43 -82
95 -97 115 -44 60 -96 74 -133 37 -19 -19 -20 -28 -14 -100 l7 -79 -48 -47
c-96 -93 -153 -114 -201 -74 -18 15 -23 30 -23 65 0 66 40 214 72 267 15 25
39 77 54 115 23 61 24 73 14 109 -13 43 -36 77 -91 136 -38 40 -49 44 -87 29z"/>
<path d="M6143 6664 c-23 -24 -25 -31 -20 -83 7 -68 -5 -93 -85 -174 -29 -29
-107 -109 -173 -178 -135 -141 -194 -186 -260 -198 -55 -10 -85 -35 -85 -70 0
-31 20 -63 81 -127 110 -118 146 -135 188 -90 24 26 28 49 16 108 -21 103 154
254 227 196 8 -7 29 -33 46 -58 16 -25 44 -58 62 -75 42 -39 72 -98 62 -122
-24 -59 -75 -121 -112 -138 -38 -17 -43 -17 -76 -2 -117 56 -179 -34 -96 -140
57 -70 136 -141 168 -149 48 -12 76 13 94 82 21 79 44 114 130 199 40 39 101
104 138 145 36 41 94 103 129 138 53 53 67 62 99 62 41 0 107 -33 128 -65 7
-11 19 -46 26 -76 14 -61 15 -54 -60 -294 -16 -49 -36 -119 -45 -155 -9 -36
-41 -142 -71 -235 -67 -211 -68 -228 -11 -281 71 -67 276 -234 287 -234 4 0
21 5 39 11 59 21 69 84 22 128 -38 36 -73 103 -65 125 4 9 36 32 73 50 94 47
203 107 221 121 31 26 294 160 332 170 17 4 42 0 73 -14 l46 -20 -6 -46 c-16
-102 8 -125 124 -125 113 0 166 -17 271 -88 84 -56 85 -58 117 -137 44 -108
45 -176 2 -265 -66 -140 -124 -206 -230 -264 -56 -31 -75 -36 -131 -36 -56 0
-77 5 -134 35 -77 39 -136 90 -161 138 -11 21 -18 68 -22 139 -4 65 -11 112
-19 120 -6 6 -28 12 -48 12 -32 0 -43 -7 -80 -49 -56 -65 -107 -164 -102 -201
2 -22 16 -37 63 -68 32 -22 93 -74 135 -117 58 -59 94 -86 160 -120 82 -41 89
-43 195 -47 l111 -4 96 46 c128 61 164 99 298 317 70 115 80 266 25 413 -27
71 -39 88 -112 160 -69 68 -97 88 -175 123 -75 34 -112 45 -184 52 -91 10
-143 26 -145 45 -5 75 -44 131 -147 214 -156 125 -187 134 -220 66 -15 -33
-15 -38 1 -84 21 -60 11 -96 -30 -107 -43 -11 -52 -7 -143 71 -47 40 -95 79
-108 88 -12 8 -43 34 -67 57 -33 31 -45 50 -45 71 0 45 31 60 105 49 106 -15
141 21 100 101 -17 33 -146 146 -213 188 -94 59 -122 84 -143 124 -39 76 -190
208 -239 208 -15 0 -36 -10 -48 -23 -24 -26 -28 -61 -11 -117 15 -49 -7 -96
-69 -150 -52 -46 -88 -51 -142 -19 -46 27 -121 107 -155 164 -24 42 -25 49
-14 83 16 48 115 152 144 152 12 0 30 -9 40 -20 23 -25 51 -25 92 -1 54 34 53
67 -4 129 -16 16 -43 48 -62 71 -43 54 -127 121 -152 121 -11 0 -32 -12 -46
-26z m844 -1292 c34 -18 113 -114 113 -137 0 -31 -114 -108 -209 -141 l-53
-19 -19 24 c-10 13 -19 33 -19 45 0 24 74 212 92 233 14 18 57 16 95 -5z"/>
<path d="M20877 6122 c-25 -27 -20 -69 13 -132 17 -30 30 -66 30 -79 0 -26
-45 -73 -160 -166 -36 -29 -112 -92 -170 -139 -93 -76 -110 -86 -146 -86 -32
0 -46 6 -70 31 -35 37 -86 61 -111 52 -57 -20 -68 -69 -28 -124 13 -19 32 -44
41 -56 26 -37 11 -68 -56 -113 -33 -22 -65 -50 -72 -63 -18 -34 -14 -101 15
-229 31 -135 34 -190 11 -212 -20 -20 -20 -20 -54 4 -16 11 -41 45 -56 76 -24
49 -26 63 -21 124 6 66 4 71 -20 90 -44 35 -90 27 -174 -30 -77 -53 -98 -78
-99 -122 0 -38 29 -64 81 -72 79 -13 178 -141 155 -201 -3 -8 -13 -15 -22 -15
-26 0 -143 67 -191 109 -102 89 -123 101 -173 101 -83 0 -165 -85 -132 -137 5
-7 40 -24 78 -37 87 -29 125 -49 189 -96 27 -21 90 -59 138 -85 48 -26 95 -59
104 -72 10 -15 18 -55 21 -103 4 -78 4 -80 -26 -107 -16 -15 -44 -38 -61 -51
-36 -28 -40 -56 -12 -110 24 -47 104 -122 130 -122 19 0 88 68 112 111 10 18
13 61 12 168 -3 148 2 171 37 171 37 0 53 -36 58 -128 2 -48 8 -92 13 -98 14
-18 63 -24 101 -14 19 6 62 35 96 66 56 50 62 60 62 94 0 48 -18 66 -72 75
-76 13 -135 100 -93 135 13 11 37 2 146 -54 116 -59 136 -66 188 -66 102 0
143 60 106 156 -20 54 -84 124 -112 124 -10 0 -33 -16 -50 -35 -26 -29 -38
-35 -72 -35 -61 0 -132 40 -174 97 -33 45 -35 54 -41 148 -4 55 -14 133 -22
173 -16 72 -15 110 6 184 9 31 17 39 58 53 26 9 55 21 64 26 55 29 99 1 183
-117 36 -50 169 -215 214 -264 17 -19 43 -54 57 -78 26 -43 27 -59 9 -148 -6
-26 -2 -35 20 -53 57 -44 111 -20 270 116 45 38 102 85 196 158 35 28 94 80
131 116 62 60 68 69 68 107 0 55 -17 63 -119 55 l-82 -6 -42 47 c-23 26 -77
86 -120 134 -57 62 -89 109 -119 171 -56 116 -59 153 -20 236 56 119 53 151
-19 215 -22 19 -56 60 -77 90 -33 47 -43 55 -73 58 -24 2 -40 -3 -52 -16z m36
-540 c9 -10 26 -40 38 -67 24 -56 72 -125 139 -201 76 -87 137 -167 155 -205
24 -50 14 -100 -28 -135 -32 -27 -127 -74 -150 -74 -7 0 -37 32 -67 71 -124
161 -215 275 -238 299 -34 35 -102 140 -102 157 0 16 30 48 113 122 63 56 109
67 140 33z"/>
<path d="M13038 3393 c-10 -3 -18 -8 -18 -13 0 -14 22 -60 57 -118 42 -71 57
-162 58 -348 0 -165 -7 -194 -56 -220 -38 -19 -80 -8 -129 33 -46 40 -61 70
-80 163 -17 84 -14 300 5 371 8 30 15 66 15 82 0 22 -4 27 -25 27 -45 0 -89
-26 -143 -84 -86 -91 -119 -196 -110 -354 11 -182 81 -276 245 -333 29 -10 63
-16 75 -13 75 14 124 16 135 3 28 -34 24 -64 -16 -145 -41 -81 -48 -89 -200
-221 -25 -21 -32 -35 -28 -48 12 -30 107 -16 154 22 21 16 52 37 70 47 151 78
271 228 314 396 23 89 53 160 68 160 11 0 46 -131 61 -230 20 -127 40 -192 80
-261 65 -111 121 -152 238 -175 25 -5 32 -3 32 10 0 9 -4 16 -10 16 -24 0 -70
119 -80 207 -13 124 -14 635 -1 772 10 99 16 124 45 178 38 71 38 72 -52 52
-97 -20 -184 -136 -227 -304 -27 -105 -36 -125 -59 -144 -22 -19 -40 16 -76
149 -35 130 -38 135 -115 218 -41 45 -70 66 -108 80 -64 24 -97 30 -119 25z"/>
<path d="M12155 3361 c-69 -25 -206 -101 -212 -117 -3 -8 11 -32 31 -54 19
-22 39 -52 43 -67 5 -16 8 -206 8 -423 0 -360 -2 -401 -19 -457 -19 -61 -19
-64 -1 -83 16 -18 31 -20 156 -20 135 0 139 1 154 24 12 19 13 29 4 52 -6 16
-18 67 -27 114 -14 71 -17 163 -17 552 -1 284 -5 471 -10 477 -21 18 -62 19
-110 2z"/>
<path d="M13930 3363 c0 -10 15 -47 33 -83 l32 -65 -1 -455 0 -456 -43 -78
c-28 -50 -40 -81 -34 -87 6 -6 32 -4 72 7 52 15 68 25 105 68 23 28 64 91 90
139 53 97 68 166 81 368 6 84 3 128 -14 227 -32 186 -57 248 -135 344 -34 42
-57 60 -92 72 -63 21 -94 21 -94 -1z"/>
<path d="M14835 3369 c-4 -6 7 -38 24 -72 43 -85 55 -161 41 -247 -15 -92 -40
-130 -83 -130 -93 0 -219 146 -233 268 -5 41 -2 53 25 92 17 25 31 55 31 68 0
18 -5 22 -32 22 -93 0 -176 -59 -223 -158 -58 -120 -29 -244 86 -374 77 -87
77 -101 -1 -170 -35 -31 -78 -82 -101 -122 -40 -66 -41 -71 -37 -141 3 -67 7
-78 47 -137 51 -76 87 -103 173 -129 64 -20 108 -19 108 4 0 7 -20 36 -44 65
-52 60 -60 94 -58 235 1 102 17 172 51 216 19 24 19 24 62 8 111 -43 206 -172
216 -294 6 -70 0 -93 -47 -173 -18 -31 -19 -36 -5 -46 38 -28 160 27 219 99
46 57 64 100 72 179 12 123 -10 178 -133 328 -25 30 -43 62 -43 76 0 17 22 48
66 95 76 81 94 118 94 191 -1 129 -121 258 -241 258 -15 0 -31 -5 -34 -11z"/>
<path d="M15610 2958 c-21 -12 -25 -20 -22 -53 8 -91 6 -653 -2 -688 -13 -57
10 -77 90 -77 78 0 99 16 89 69 -4 20 -9 166 -12 325 -3 231 -1 298 11 337 12
44 12 51 -3 70 -21 26 -114 36 -151 17z"/>
<path d="M15957 2943 c-15 -14 -5 -32 33 -57 22 -14 44 -26 50 -26 16 0 12 57
-6 74 -15 16 -65 22 -77 9z"/>
<path d="M15992 2280 c-30 -19 -51 -62 -45 -92 2 -9 22 -28 43 -43 46 -32 73
-27 95 15 19 36 19 63 0 99 -18 36 -55 44 -93 21z"/>
</g>
</svg>
